<svg xmlns="http://www.w3.org/2000/svg" version="1.1" xmlns:xlink="http://www.w3.org/1999/xlink" xmlns:svgjs="http://svgjs.dev/svgjs" viewBox="0 0 800 800" opacity="0.51"><defs><linearGradient x1="50%" y1="0%" x2="50%" y2="100%" id="wwwhirl-grad"><stop stop-color="hsla(264, 75%, 49%, 1.00)" stop-opacity="1" offset="45%"></stop><stop stop-color="hsla(301, 90%, 56%, 1.00)" stop-opacity="1" offset="100%"></stop></linearGradient></defs><g stroke-width="1" stroke="url(#wwwhirl-grad)" fill="none" stroke-linecap="round"><path d="M-396.4999420700077 438.78162407605C-316.8499445007327 402.3417501881067 -237.1999469314577 299.593253323742 -77.89995179290776 293.0221285242768C81.40004334564219 286.4510037248116 81.40004334564208 407.71812502403276 240.70003848419208 412.49712487818925C400.0000336227421 417.2761247323458 400.0000336227421 272.7113791441117 559.3000287612922 312.1381279409028C718.600023899842 351.5648767376939 718.6000238998424 591.1122444272885 877.9000190383922 570.2041200653537C1037.200014176942 549.2959957034191 1116.850011746217 313.93025288621146 1196.5000093154918 228.50563049316406 " transform="rotate(0, 400, 400)"></path><path d="M-366.99994252014193 437.34523259008813C-290.29994486084007 402.25498366095746 -213.59994720153827 303.3119866804581 -60.19995188293461 296.98423687356575C93.20004343566916 290.6564870666733 93.20004343566893 407.43223350296034 246.60003875427265 412.03423336251853C400.00003407287636 416.6362332220766 400.00003407287636 277.4257374704438 553.4000293914801 315.3922363117982C706.8000247100836 353.35873515315257 706.8000247100838 584.0339781135028 860.2000200286875 563.9002287279361C1013.600015347291 543.7664793423694 1090.300013006593 317.11798625913246 1167.0000106658947 234.85723876953125 " transform="rotate(0, 400, 400)"></path><path d="M-337.4999429702762 435.9089021392824C-263.7499452209475 402.16827816896455 -189.99994747161878 307.03078107233057 -42.49995197296141 300.94640625801094C105.0000435256959 294.8620314436913 105.00004352569579 407.14640301704424 252.5000390243532 411.57140288200395C400.00003452301064 415.99640274696367 400.00003452301064 282.14015683193213 547.5000300216681 318.6464057178498C695.0000255203254 355.15265460376753 695.0000255203256 576.9557728348735 842.500021018983 557.5963984256748C990.0000165176402 538.237024016476 1063.750014266969 320.3057806672097 1137.5000120162974 241.2089080810547 " transform="rotate(0, 400, 400)"></path><path d="M-307.99994342041043 434.47255642968764C-237.19994558105492 402.0815574181825 -166.39994774169935 310.7495602054139 -24.799952062988325 304.90856038366707C116.80004361572287 299.06756056192023 116.80004361572264 406.860557272339 258.4000392944338 411.1085571427003C400.0000349731448 415.35655701306166 400.0000349731448 286.85456093463137 541.600030651856 321.90055986511237C683.200026330567 356.9465587955934 683.2000263305672 569.8775522974552 824.8000220092783 551.2925528646243C966.4000176879892 532.7075534317935 1037.200015527345 323.49355981649785 1108.0000133667002 247.56056213378906 " transform="rotate(0, 400, 400)"></path><path d="M-278.4999438705447 433.0361802025148C-210.64994594116234 401.99480614982235 -142.79994801177992 314.4683088209191 -7.099952153015181 308.87068399174507C128.6000437057496 303.273059162571 128.6000437057496 406.57468101005566 264.30003956451435 410.6456808858186C400.0000354232792 414.71668076158153 400.0000354232792 291.56893451975253 535.7000312820439 325.1546834947968C671.4000271408086 358.7404324698411 671.400027140809 562.7993012424586 807.1000229995736 544.9886767859957C942.8000188583383 527.1780523295329 1010.6500167877207 326.6813084482079 1078.5000147171029 253.9121856689453 " transform="rotate(0, 400, 400)"></path><path d="M-248.999944320679 431.59980397534196C-184.09994630126974 401.90805488146225 -119.19994828186043 318.1870574364243 10.60004775695802 312.83280759982307C140.40004379577658 307.4785577632218 140.40004379577636 406.28880474777236 270.2000398345949 410.1828046289369C400.0000358734135 414.07680451010145 400.0000358734135 296.2833081048737 529.8000319122319 328.40880712448126C659.6000279510504 360.5343061440889 659.6000279510504 555.7210501874622 789.4000239898692 538.6848007073672C919.2000200286875 521.6485512272723 984.1000180480967 329.869057079918 1049.0000160675058 260.26380920410156 " transform="rotate(0, 400, 400)"></path><path d="M-219.49994477081327 430.16342774816906C-157.54994666137713 401.8213036131021 -95.59994855194105 321.9058060519295 28.300047666931164 316.7949312079011C152.20004388580338 311.68405636387257 152.2000438858032 406.00292848548906 276.1000401046755 409.71992837205516C400.00003632354765 413.4369282586214 400.00003632354765 300.99768168999486 523.9000325424199 331.6629307541657C647.800028761292 362.3281798183366 647.8000287612922 548.6427991324656 771.7000249801645 532.3809246287387C895.6000211990363 516.1190501250117 957.5500193084727 333.05680571162804 1019.5000174179086 266.6154327392578 " transform="rotate(0, 400, 400)"></path><path d="M-189.99994522094752 428.72712018554705C-130.99994702148456 401.7346210092927 -71.99994882202162 325.6246233319855 46.00004757690431 320.7571234805298C164.00004397583018 315.88962362907415 164.00004397583012 405.71712088775644 282.00004037475605 409.25712077972423C400.0000367736819 412.797120671692 400.0000367736819 305.71212393966675 518.0000331726079 334.9171230484009C636.0000295715337 364.1221221571351 636.0000295715339 541.5646167420199 754.0000259704598 526.0771172146609C872.0000223693855 510.5896176873018 931.0000205688486 336.24462300788883 990.0000187683113 272.96712493896484 " transform="rotate(0, 400, 400)"></path><path d="M-160.49994567108178 427.29079736413587C-104.44994738159198 401.6479231466943 -48.39994909210216 329.3434253532524 63.700047486877395 324.7193004943696C175.80004406585704 320.0951756354866 175.80004406585698 405.43129803123486 287.9000406448365 408.79429792860424C400.0000372238162 412.1572978259736 400.0000372238162 310.42655093054964 512.1000338027958 338.1713000838471C624.2000303817754 365.91604923714453 624.2000303817755 534.4864190927851 736.3000269607551 519.773294541794C848.4000235397348 505.06016999080293 904.4500218292244 339.4324250453606 960.5000201187142 279.3188018798828 " transform="rotate(0, 400, 400)"></path><path d="M-130.99994612121606 425.85436773120136C-77.89994774169938 401.56111847257245 -24.7999493621827 333.062120562996 81.4000473968506 328.6813706966858C187.6000441558839 324.3006208303757 187.60004415588378 405.14536836318985 293.8000409149172 408.3313682659608C400.0000376739505 411.5173681687318 400.0000376739505 315.1408711099091 506.2000344329838 341.4253703077698C612.4000311920171 367.70986950563054 612.4000311920172 527.4081146320269 718.6000279510505 513.4693650574038C824.8000247100836 499.53061548278066 877.9000230896004 342.62012027130896 931.000021469117 285.67037200927734 " transform="rotate(0, 400, 400)"></path><path d="M-101.4999465713503 424.4180449097902C-51.3499481018068 401.474420609974 -1.1999496322632695 336.7809225842629 99.10004730682374 332.6435477105255C199.40004424591075 328.5061728367882 199.40004424591064 404.8595455066682 299.70004118499764 407.8685454148408C400.00003812408477 410.8775453230134 400.00003812408477 319.85529810079197 500.3000350631718 344.679547343216C600.6000320022587 369.50379658564003 600.6000320022589 520.3299169827922 700.9000289413458 507.16554238453693C801.2000258804328 494.00116778628177 851.3500243499764 345.8079223087807 901.5000228195197 292.0220489501953 " transform="rotate(0, 400, 400)"></path><path d="M-71.99996228027365 422.98171445898447C-24.79996372070326 401.3877151179811 22.4000348388671 340.4997169761353 116.80003195800782 336.6057170949707C211.20002907714854 332.7117172138062 211.20002907714849 404.57371502075205 305.6000261962892 407.4057149343263C400.00002331543 410.2377148479005 400.00002331543 324.5697174622803 494.4000204345707 347.93371674926766C588.8000175537113 371.29771603625494 588.8000175537115 513.2517117041629 683.2000146728521 500.8617120822756C777.6000117919929 488.47171246038835 824.8000103515633 348.99571671685794 872.0000089111336 298.37371826171875 " transform="rotate(0, 400, 400)"></path><path d="M-42.499993247986026 421.54535349060075C1.7500054016111903 401.30097910841 46.00000405120841 344.21848085042956 134.50000135040284 340.56785596183784C222.99999864959727 336.91723107324606 222.99999864959716 404.2878540172578 311.49999594879165 406.94285393623363C399.999993247986 409.59785385520945 399.999993247986 329.2841063061905 488.4999905471806 351.1878556377411C576.9999878463749 373.0916049692918 576.999987846375 506.1734759079554 665.4999851455694 494.5578512624361C753.9999824447638 482.94222661691686 798.2499810943611 352.18348060735707 842.4999797439582 304.72535705566406 " transform="rotate(0, 400, 400)"></path><path d="M-12.999993698120306 420.1089696340333C28.300005041503766 401.2142202106553 69.60000378112784 347.93722183654023 152.20000126037598 344.52997194052125C234.79999873962413 341.12272204450227 234.79999873962402 404.00197012557993 317.39999621887216 406.4799700499574C399.9999936981203 408.9579699743348 399.9999936981203 333.99847226191713 482.59999117736857 354.441971638031C565.1999886566166 374.88547101414497 565.1999886566167 499.0952172235643 647.7999861358647 488.253967554413C730.3999836151129 477.4127178852617 771.699982354737 355.3712216096726 812.9999810943609 311.0769729614258 " transform="rotate(0, 400, 400)"></path><path d="M16.500005851745442 418.67263918322766C54.85000468139637 401.1275147186623 93.20000351104727 351.6560162284127 169.90000117034913 348.49214132496644C246.59999882965099 345.32826642152025 246.59999882965087 403.71613963966377 323.29999648895273 406.01713956944286C399.9999941482546 408.3181394992219 399.9999941482546 338.7128916234055 476.69999180755644 357.69614104408265C553.3999894668582 376.6793904647599 553.3999894668583 492.017011944935 630.0999871261602 481.95013725215165C706.7999847854619 471.8832625593683 745.1499836151129 358.55901601774985 783.4999824447638 317.4286422729492 " transform="rotate(0, 400, 400)"></path><path d="M46.00000540161116 417.23626295605476C81.40000432128895 401.04076345030217 116.80000324096673 355.3747648439179 187.60000108032227 352.45426493304444C258.39999891967784 349.53376502217105 258.3999989196777 403.43026337738047 329.1999967590333 405.5542633125611C399.9999945983888 407.67826324774177 399.9999945983888 343.42726520852665 470.7999924377443 360.95026467376715C541.5999902770999 378.4732641390076 541.5999902771 484.9387608899385 612.3999881164556 475.6462611735231C683.199985955811 466.3537614571077 718.5999848754889 361.74676464945986 753.9999837951665 323.78026580810547 " transform="rotate(0, 400, 400)"></path><path d="M75.50000495147691 415.7999096170655C107.95000396118155 400.95403507012566 140.4000029708862 359.0935363476067 205.30000099029542 356.41641142930604C270.1999990097047 353.73928651100545 270.1999990097046 403.1444100032807 335.09999702911387 405.09140994386297C399.99999504852315 407.0384098844453 399.99999504852315 348.14166168183135 464.8999930679324 364.2044111916352C529.7999910873416 380.26716070143897 529.7999910873416 477.86053272312563 594.699989106751 469.34240798307815C659.5999871261602 460.82428324303066 692.0499861358647 364.9345361693535 724.4999851455693 330.1319122314453 " transform="rotate(0, 400, 400)"></path><path d="M105.00000450134266 414.3635600927735C134.50000360107413 400.86731050464635 164.0000027008056 362.81231166599275 223.00000090026856 360.3785617402649C281.9999990997315 357.94481181453705 281.99999909973144 402.8585604438782 340.99999729919443 404.6285603898621C399.99999549865737 406.398560335846 399.99999549865737 352.8560619698334 458.99999369812036 367.4585615242005C517.9999918975832 382.06106107856755 517.9999918975834 470.78230837100995 576.9999900970463 463.03855860733046C635.9999882965092 455.2948088436509 665.4999873962407 368.12231150394445 694.999986495972 336.4835624694824 " transform="rotate(0, 400, 400)"></path><path d="M134.50000405120838 412.9271838656007C161.0500032409667 400.7805592362862 187.60000243072506 366.53106028149796 240.7000008102417 364.3406853483429C293.79999918975835 362.15031041518785 293.7999991897583 402.5726841815949 346.899997569275 404.1656841329804C399.99999594879165 405.7586840843659 399.99999594879165 357.57043555495454 453.0999943283083 370.71268515388493C506.19999270782495 383.85493475281527 506.199992707825 463.70405731601346 559.2999910873416 456.7346825287019C612.3999894668582 449.7653077413903 638.9499886566166 371.31006013565445 665.4999878463749 342.8351860046387 " transform="rotate(0, 400, 400)"></path><path d="M164.00000360107413 411.49085722949224C187.6000028808593 400.69385755899054 211.2000021606445 370.2498584880676 258.40000072021485 368.30285854748536C305.5999992797852 366.3558586069031 305.59999927978515 402.286857510376 352.79999783935557 403.70285746716314C399.99999639892593 405.11885742395026 399.99999639892593 362.28485873114016 447.1999949584963 373.96685837463383C494.3999935180666 385.6488580181275 494.3999935180667 456.62585585208143 541.599992077637 450.43085604113776C588.7999906372074 444.23585623019414 612.3999899169926 374.49785835842897 635.9999891967777 349.1868591308594 " transform="rotate(0, 400, 400)"></path><path d="M193.50000315093985 410.05448481701666C214.15000252075188 400.60711010532765 234.80000189056392 373.96861091827014 276.100000630188 372.2649859702606C317.39999936981206 370.56136102225116 317.399999369812 402.00098506278994 358.6999981094361 403.2399850249787C399.99999684906015 404.4789849871674 399.99999684906015 366.9992361309586 441.2999955886843 377.22098581901554C482.5999943283083 387.4427355070725 482.59999432830836 449.54760861178215 523.8999930679324 444.12698377720653C565.1999918075564 438.70635894263086 585.8499911773686 377.6856108048363 606.4999905471805 355.5384864807129 " transform="rotate(0, 400, 400)"></path><path d="M223.0000027008056 408.6181314780274C240.7000021606445 400.5203817251511 258.40000162048335 377.68738242195894 293.80000054016114 376.2271324665222C329.1999994598389 374.7668825110855 329.19999945983886 401.71513168869024 364.59999837951665 402.7771316562806C399.99999729919443 403.8391316238709 399.99999729919443 371.7136326042633 435.39999621887216 380.4751323368836C470.79999513854995 389.2366320695038 470.79999513855 442.46938044496926 506.1999940582278 437.8231305867615C541.5999929779055 433.17688072855384 559.2999924377444 380.87338232472996 576.9999918975832 361.89013290405273 " transform="rotate(0, 400, 400)"></path><path d="M252.50000225067132 407.1817724169922C267.25000180053706 400.4336476229287 282.00000135040284 381.40614820360184 311.5000004501343 380.1892732407379C340.9999995498657 378.972398277874 340.9999995498657 401.4292725925446 370.4999986495972 402.31427256553656C399.9999977493287 403.1992725385285 399.9999977493287 376.42802335552216 429.49999684906015 383.7292731327057C458.9999959487916 391.0305229098892 458.9999959487917 435.39114655611047 488.49999504852315 431.51927167427067C517.9999941482546 427.6473967924309 532.7499936981203 384.06114812257766 547.499993247986 368.2417736053467 " transform="rotate(0, 400, 400)"></path><path d="M282.0000094299316 405.74542480004885C293.80000906982417 400.346924964798 305.6000087097168 385.12492542933654 329.20000798950196 384.1514254590454C352.8000072692871 383.1779254887543 352.8000072692871 401.1434249404907 376.4000065490723 401.8514249188843C400.0000058288575 402.55942489727784 400.0000058288575 381.1424255508728 423.6000051086427 386.98342537261965C447.2000043884278 392.8244251943665 447.2000043884279 428.3129241113434 470.80000366821304 425.2154242058716C494.40000294799825 422.1179243003998 506.2000025878908 387.2489253645172 518.0000022277834 374.5934257507324 " transform="rotate(0, 400, 400)"></path><path d="M311.5000089797973 404.3090542949219C320.3500087097168 400.26017941848374 329.20000843963624 388.8436797668877 346.9000078994751 388.1135547891693C364.60000735931396 387.383429811451 364.60000735931396 400.8575544002533 382.3000068191528 401.38855438404846C400.00000627899175 401.91955436784366 400.00000627899175 385.8568048580399 417.7000057388306 390.23755472435C435.40000519866953 394.6183045906601 435.40000519866953 421.23467877839283 453.1000046585084 418.91155384928896C470.80000411834726 416.5884289201851 479.65000384826675 390.4366797182732 488.5000035781861 380.94505500793457 " transform="rotate(0, 400, 400)"></path><path d="M341.00000090026856 402.87271049267576C346.90000072021485 400.1734605750504 352.80000054016114 392.56246080731967 364.6000001800537 392.0757108221741C376.3999998199463 391.5889608370285 376.3999998199463 400.5717105628967 388.19999945983886 400.9257105520935C399.9999990997315 401.2797105412903 399.9999990997315 390.57121086808775 411.7999987396241 393.4917107789612C423.59999837951665 396.4122106898346 423.5999983795167 414.1564601483231 435.3999980194093 412.6077101955872C447.19999765930186 411.0589602428513 453.09999747924815 393.62446077490995 458.99999729919443 387.2967109680176 " transform="rotate(0, 400, 400)"></path><path d="M370.5000004501343 401.43635333898925C373.4500003601074 400.08672838017657 376.40000027008057 396.2812284963112 382.30000009002686 396.0378535037384C388.19999990997314 395.7944785111656 388.19999990997314 400.28585337409976 394.09999972991943 400.4628533686981C399.9999995498657 400.63985336329654 399.9999995498657 395.28560352669524 405.899999369812 396.74585348213196C411.7999991897583 398.2061034375687 411.79999918975835 407.0782281668129 417.69999900970464 406.30385319044495C423.59999882965093 405.529478214077 426.5499987396241 396.81222848010634 429.4999986495972 393.64835357666016 " transform="rotate(0, 400, 400)"></path></g></svg>